<?xml version="1.0" standalone="no"?>
<!DOCTYPE svg PUBLIC "-//W3C//DTD SVG 20010904//EN"
 "http://www.w3.org/TR/2001/REC-SVG-20010904/DTD/svg10.dtd">
<svg version="1.0" xmlns="http://www.w3.org/2000/svg"
 width="500.000000pt" height="500.000000pt" viewBox="0 0 500.000000 500.000000"
 preserveAspectRatio="xMidYMid meet" fill="#9c140c">

<g transform="translate(0.000000,500.000000) scale(0.100000,-0.100000)" stroke="none">
<path d="M2315 4925 c-764 -70 -1437 -465 -1846 -1086 -216 -327 -324 -602
-373 -954 -55 -391 -36 -679 71 -1095 100 -390 310 -746 628 -1065 192 -191
522 -410 760 -503 92 -36 309 -109 385 -130 176 -49 522 -79 702 -62 524 51
810 143 1163 374 247 161 404 299 570 496 117 139 180 234 271 405 94 178 134
280 212 540 35 115 73 359 87 555 7 98 -9 343 -31 475 -59 355 -240 764 -477
1080 -274 365 -660 656 -1080 814 -245 92 -422 131 -707 156 -91 8 -172 14
-180 14 -8 -1 -78 -7 -155 -14z m-40 -155 c-6 -20 -17 -25 -76 -35 -54 -10
-87 31 -59 75 5 8 33 20 62 26 53 10 53 10 66 -19 7 -16 10 -37 7 -47z m272
74 c49 -13 40 -80 -12 -90 -72 -13 -116 16 -100 65 8 27 61 38 112 25z m301
-16 c56 -13 63 -21 52 -59 -13 -45 -16 -47 -71 -36 -60 12 -80 39 -61 82 13
29 16 29 80 13z m-864 -81 c14 -45 13 -46 -13 -56 -51 -19 -102 -33 -107 -28
-2 2 -10 24 -17 48 l-13 44 65 21 c36 11 67 20 68 19 2 -1 9 -22 17 -48z
m1245 -12 c2 -3 -1 -23 -8 -45 -14 -47 -32 -51 -98 -20 -48 21 -47 19 -32 70
l11 37 61 -19 c34 -10 63 -21 66 -23z m-1534 -82 c8 -19 15 -39 15 -43 0 -3
-29 -18 -64 -32 l-64 -25 -16 40 c-8 22 -13 44 -9 50 8 13 106 56 116 50 4 -2
14 -20 22 -40z m1822 -34 c8 -7 7 -20 -4 -49 -9 -22 -20 -40 -24 -40 -5 0 -34
11 -65 25 -55 24 -56 25 -49 57 12 56 20 60 78 37 29 -11 57 -25 64 -30z
m-676 20 c89 -14 96 -23 76 -96 -9 -32 -28 -114 -42 -183 -43 -208 -40 -200
-77 -189 -58 16 -283 31 -383 24 -55 -4 -135 -13 -178 -20 -44 -8 -85 -11 -93
-8 -7 3 -23 37 -35 77 -12 39 -40 135 -63 213 l-43 142 26 10 c49 20 126 34
226 41 124 10 499 3 586 -11z m642 -202 c144 -68 386 -242 455 -328 l24 -30
-69 -77 c-91 -103 -194 -205 -226 -227 -27 -17 -28 -17 -63 11 -176 141 -325
232 -474 289 -52 21 -100 41 -106 46 -7 6 3 59 33 176 24 93 46 185 50 206 11
70 19 72 156 23 67 -24 166 -64 220 -89z m-2083 91 c11 -18 20 -38 20 -44 0
-6 -26 -25 -58 -42 l-58 -31 -21 43 -21 43 51 31 c29 16 55 31 60 31 4 1 16
-14 27 -31z m475 -185 c38 -109 72 -205 76 -214 7 -14 -3 -21 -53 -39 -131
-48 -332 -164 -470 -272 -49 -37 -94 -68 -101 -68 -12 0 -324 270 -339 293
-12 19 3 36 90 105 148 115 273 197 403 262 70 36 297 129 315 130 7 0 42 -89
79 -197z m1907 129 c16 -14 16 -17 -5 -53 l-22 -38 -57 32 c-32 17 -58 37 -58
44 0 7 7 28 17 47 l16 35 46 -26 c25 -15 54 -33 63 -41z m-2677 -155 c16 -21
14 -23 -32 -64 -26 -24 -51 -43 -56 -43 -13 0 -57 48 -57 62 0 8 21 30 47 50
51 39 67 39 98 -5z m2876 4 l48 -38 -25 -37 c-14 -20 -28 -36 -31 -36 -14 0
-85 54 -94 72 -11 21 2 52 29 67 23 14 18 16 73 -28z m-1434 -217 c49 -13 40
-80 -12 -90 -72 -13 -116 16 -100 65 8 27 61 38 112 25z m-1728 -33 c69 -35
429 -346 486 -419 40 -52 43 -74 15 -102 -25 -25 -66 -25 -106 -1 -58 36 -429
334 -472 380 -52 56 -57 72 -38 110 28 53 57 61 115 32z m1459 -15 c19 -39 10
-52 -50 -70 -60 -17 -72 -12 -83 41 -6 29 -4 33 22 39 15 3 39 9 53 14 34 11
43 8 58 -24z m558 4 c21 -8 22 -12 12 -47 -5 -21 -12 -41 -14 -44 -4 -8 -104
19 -117 31 -5 4 -5 24 -1 45 l7 37 45 -7 c25 -4 55 -11 68 -15z m1335 -14 c32
-22 70 -78 69 -103 -1 -21 -73 -84 -296 -261 -133 -104 -250 -196 -262 -203
-28 -17 -66 0 -87 40 l-15 30 79 88 c125 140 442 431 471 433 3 0 22 -11 41
-24z m-1097 -41 c31 -14 56 -29 56 -35 0 -6 -7 -27 -15 -46 -16 -40 -27 -40
-100 0 -41 23 -44 32 -25 82 12 30 15 30 84 -1z m-1085 -16 c17 -50 14 -55
-44 -77 l-56 -20 -14 21 c-28 44 -23 61 25 85 60 30 76 28 89 -9z m-236 -108
c9 -16 17 -31 17 -34 0 -8 -96 -77 -106 -77 -8 0 -54 64 -54 75 0 10 103 73
114 69 7 -3 20 -18 29 -33z m882 24 c439 -52 778 -249 1027 -597 142 -197 220
-412 253 -691 14 -114 14 -141 0 -259 -25 -211 -69 -359 -157 -529 -97 -186
-260 -373 -433 -496 -352 -251 -765 -326 -1200 -218 -197 50 -473 207 -626
358 -84 82 -199 240 -257 355 -96 186 -133 311 -157 527 -14 123 -14 150 0
272 25 216 63 344 156 525 86 167 212 319 365 442 224 179 455 274 753 311
141 17 129 17 276 0z m681 -15 c50 -35 54 -53 21 -94 l-23 -29 -52 34 c-28 19
-52 38 -52 43 0 15 41 76 52 76 5 0 29 -14 54 -30z m-2646 -74 c0 -6 -18 -35
-39 -64 l-40 -52 -36 34 c-40 38 -40 35 10 103 l29 40 38 -25 c21 -13 38 -30
38 -36z m3750 3 c43 -45 43 -62 -2 -93 -33 -23 -40 -20 -75 34 -39 59 -40 63
-10 83 33 24 43 21 87 -24z m-3474 -159 c95 -72 175 -134 178 -138 2 -4 -32
-68 -75 -142 -43 -74 -93 -173 -110 -220 -43 -122 -35 -116 -115 -90 -108 35
-373 140 -379 150 -6 9 80 210 143 335 56 112 151 248 169 241 8 -3 93 -65
189 -136z m3296 108 c18 -15 97 -127 128 -183 75 -132 180 -365 180 -399 0
-10 -26 -23 -82 -40 -116 -35 -332 -98 -338 -98 -22 -2 -32 13 -65 95 -42 106
-100 215 -161 305 l-44 64 138 101 c75 55 155 115 177 134 46 37 46 37 67 21z
m-2687 -41 c15 -21 14 -23 -32 -64 -26 -24 -53 -43 -60 -43 -13 0 -53 52 -53
69 0 6 21 26 47 45 51 37 68 36 98 -7z m1975 3 l40 -40 -22 -35 c-13 -19 -28
-35 -34 -35 -15 0 -94 74 -94 89 0 15 45 61 60 61 5 0 28 -18 50 -40z m-3040
-115 c17 -9 30 -18 30 -21 0 -18 -53 -104 -65 -104 -24 0 -65 23 -65 36 0 25
44 104 57 104 8 0 27 -7 43 -15z m4100 -32 c13 -27 24 -51 25 -56 0 -4 -18
-18 -40 -31 l-40 -24 -27 50 c-35 63 -35 69 0 90 42 27 56 22 82 -29z m-3315
-173 c12 -13 8 -23 -26 -68 -39 -51 -40 -52 -65 -36 -46 31 -48 48 -12 103
l33 49 28 -16 c16 -10 35 -24 42 -32z m3439 -88 c9 -25 16 -51 16 -57 0 -6
-20 -21 -44 -32 -50 -25 -43 -31 -76 64 l-19 52 42 14 c23 8 47 12 54 10 6 -3
19 -25 27 -51z m-831 -1 c15 -27 27 -55 27 -63 0 -15 -65 -57 -73 -48 -17 19
-57 92 -57 104 0 12 54 55 70 56 3 0 17 -22 33 -49z m-3487 5 c9 -8 7 -24 -9
-65 -20 -52 -21 -53 -56 -47 -55 9 -64 24 -46 76 23 64 30 70 68 58 18 -6 37
-16 43 -22z m754 -142 c0 -8 -12 -38 -27 -68 l-27 -55 -30 16 c-55 28 -56 30
-34 81 31 71 33 72 78 55 22 -9 40 -22 40 -29z m2853 -116 l24 -67 -43 -15
-43 -14 -21 54 c-27 73 -26 79 18 96 20 8 38 14 39 14 1 -1 13 -31 26 -68z
m-3706 -74 c-12 -35 -26 -65 -33 -68 -18 -7 -84 16 -84 29 0 6 9 38 21 72 l20
61 48 -16 48 -15 -20 -63z m4518 19 c9 -31 13 -59 8 -63 -4 -4 -27 -12 -49
-17 l-42 -10 -15 61 c-8 33 -13 66 -10 72 6 17 66 33 80 22 7 -6 19 -35 28
-65z m-4214 -59 c115 -32 216 -62 225 -69 14 -10 15 -19 5 -65 -29 -133 -41
-312 -30 -435 6 -66 14 -137 19 -157 5 -25 4 -41 -4 -47 -6 -5 -107 -26 -224
-45 -117 -19 -216 -37 -220 -40 -5 -3 -13 -2 -19 2 -11 7 -38 209 -49 368 -9
136 17 403 52 527 3 9 12 17 21 17 8 0 109 -25 224 -56z m4019 -55 c6 -35 17
-145 25 -244 12 -157 12 -202 -1 -350 -12 -147 -27 -235 -39 -235 -12 0 -428
110 -432 114 -9 9 -7 52 6 173 13 115 4 298 -20 428 -9 52 -1 94 19 95 4 1 99
25 212 54 145 37 207 49 212 41 4 -6 12 -40 18 -76z m-3585 25 l22 -5 -20 -69
-20 -68 -43 15 c-24 8 -44 18 -44 22 0 19 34 107 44 113 6 4 17 6 24 3 8 -3
24 -8 37 -11z m3044 -151 c12 -62 11 -65 -36 -81 -38 -13 -41 -10 -58 63 -14
61 -11 68 30 82 40 14 50 4 64 -64z m758 -42 c7 -36 9 -69 5 -73 -5 -5 -28
-10 -52 -11 -42 -2 -44 -1 -52 33 -13 56 -2 97 30 109 47 17 55 10 69 -58z
m-4620 51 c17 -11 26 -57 19 -96 -7 -38 -38 -52 -79 -37 -24 9 -24 11 -14 68
5 32 15 61 21 65 14 10 38 10 53 0z m763 -142 c10 -6 15 -26 15 -65 0 -56 -11
-75 -45 -75 -34 0 -45 19 -45 75 0 56 11 75 45 75 8 0 22 -5 30 -10z m3107
-96 c45 -12 43 -127 -2 -138 -33 -8 -72 2 -79 20 -3 8 -1 37 5 64 9 44 16 52
49 59 3 0 15 -2 27 -5z m-3866 -85 c20 -104 20 -99 -7 -109 -47 -18 -72 -3
-83 51 -13 60 -8 74 32 87 44 14 50 11 58 -29z m4591 21 c29 -8 38 -17 43 -40
16 -71 -17 -110 -79 -94 -34 8 -47 65 -26 118 11 29 12 30 62 16z m-3815 -123
c1 -1 8 -30 16 -63 l14 -61 -44 -10 c-52 -12 -52 -12 -68 73 -11 61 -11 63 9
67 18 4 67 -1 73 -6z m3083 -121 c-1 -33 -17 -97 -28 -108 -10 -10 -77 6 -86
21 -4 6 12 73 28 118 4 8 15 8 45 1 32 -8 41 -15 41 -32z m-3835 -76 c11 -17
34 -114 29 -122 -8 -12 -78 -28 -87 -19 -4 4 -14 34 -21 66 l-14 57 32 14 c38
16 53 17 61 4z m4532 -1 c44 -16 48 -35 27 -111 -6 -22 -35 -31 -69 -22 -27 7
-27 8 -20 68 9 83 11 85 62 65z m-3730 -71 c4 -7 15 -37 24 -66 l17 -52 -47
-14 -46 -13 -20 66 -21 66 36 11 c47 16 48 16 57 2z m-138 -228 c48 -134 85
-202 204 -377 l89 -133 -71 -78 c-39 -44 -108 -113 -154 -155 l-84 -76 -31 27
c-49 43 -226 286 -284 391 -66 119 -145 315 -154 379 l-6 49 120 32 c67 17
163 41 214 52 51 11 95 22 97 25 8 7 17 -15 60 -136z m3086 128 c30 -14 31
-32 5 -92 -22 -51 -31 -55 -77 -26 l-33 20 20 50 c11 28 20 53 20 55 0 9 39 5
65 -7z m304 -44 c190 -60 250 -80 256 -86 14 -13 -100 -295 -169 -416 -82
-146 -278 -392 -312 -392 -8 0 -51 33 -96 73 -44 39 -108 95 -141 123 -86 73
-86 76 -37 137 115 143 235 356 290 515 22 62 37 92 48 92 8 0 81 -21 161 -46z
m449 -148 c-12 -33 -24 -64 -27 -69 -8 -9 -70 10 -89 27 -10 9 -8 24 8 72 l21
61 53 -15 54 -15 -20 -61z m-4400 -6 l20 -59 -44 -15 c-43 -14 -45 -14 -58 7
-20 31 -39 97 -31 105 11 12 69 29 82 25 6 -3 21 -31 31 -63z m794 0 l26 -59
-44 -17 c-25 -9 -46 -15 -48 -13 -6 7 -56 108 -56 114 0 7 61 33 80 34 9 1 26
-22 42 -59z m2766 -74 c5 -22 -48 -96 -68 -96 -10 0 -29 9 -44 21 -29 23 -27
33 21 97 l25 33 31 -20 c18 -11 33 -27 35 -35z m-2628 -136 c22 -22 40 -45 40
-51 0 -17 -60 -69 -73 -63 -7 3 -27 25 -45 49 -35 47 -34 71 6 94 26 15 29 14
72 -29z m3373 -9 c4 -4 -5 -35 -19 -68 l-27 -61 -43 21 c-24 11 -44 26 -44 33
0 13 36 96 46 106 7 7 72 -16 87 -31z m-918 -23 c19 -13 35 -27 35 -32 0 -16
-52 -87 -72 -97 -14 -8 -26 -5 -48 11 -17 12 -30 26 -30 31 0 9 71 109 77 109
2 0 19 -10 38 -22z m-3282 -38 c15 -28 27 -52 27 -55 0 -2 -18 -14 -39 -25
-30 -15 -41 -17 -49 -7 -11 14 -52 94 -52 101 0 8 53 35 70 35 8 1 27 -22 43
-49z m990 -101 c43 -20 50 -53 23 -107 -39 -77 -403 -555 -430 -565 -21 -8
-104 51 -133 94 -32 49 -39 37 156 249 161 175 251 264 315 311 45 34 39 32
69 18z m2172 -64 c29 -19 393 -359 437 -408 21 -23 38 -48 38 -55 0 -30 -32
-69 -84 -101 -55 -33 -56 -33 -80 -15 -29 22 -328 371 -392 457 -39 52 -42 60
-32 87 19 56 60 69 113 35z m925 -27 c0 -14 -64 -108 -74 -108 -14 0 -76 41
-76 51 0 5 14 31 32 58 l32 49 43 -21 c24 -12 43 -25 43 -29z m-3969 -40 l33
-51 -30 -23 c-16 -13 -36 -24 -45 -24 -16 0 -79 82 -79 103 0 16 62 56 77 50
7 -3 27 -28 44 -55z m1202 -112 c22 -14 22 -19 -5 -60 -22 -34 -23 -34 -53
-19 -16 9 -42 24 -57 35 -24 17 -26 22 -17 41 6 12 18 30 27 39 14 17 17 17
51 -4 20 -12 44 -27 54 -32z m1591 21 c15 -19 26 -38 26 -43 -1 -5 -25 -26
-55 -47 l-55 -38 -30 42 -30 42 53 37 c28 21 55 39 59 39 4 1 18 -14 32 -32z
m1017 -99 c20 -38 -63 -118 -101 -98 -19 10 -40 40 -40 58 0 5 18 28 40 51 40
41 41 41 66 25 13 -9 29 -25 35 -36z m-3671 1 c38 -39 39 -41 23 -65 -35 -54
-77 -48 -124 17 l-20 29 30 30 c16 17 34 30 40 30 6 0 29 -18 51 -41z m808 3
c103 -70 226 -138 320 -177 50 -22 92 -44 92 -50 0 -5 -32 -94 -71 -197 -60
-157 -75 -188 -92 -188 -87 0 -566 254 -567 301 0 24 229 349 246 349 8 0 41
-17 72 -38z m504 -45 c7 -12 -20 -74 -36 -80 -6 -2 -36 7 -67 20 l-57 25 21
48 20 48 56 -25 c31 -14 59 -30 63 -36z m1114 7 c20 -48 19 -50 -33 -68 -68
-23 -79 -21 -96 22 l-16 37 57 26 c31 15 61 25 66 22 4 -3 14 -20 22 -39z
m522 -113 c67 -87 122 -163 122 -167 0 -10 -113 -84 -217 -142 -84 -47 -235
-117 -310 -142 l-51 -18 -20 46 c-30 70 -122 319 -122 329 0 5 48 30 108 56
59 26 159 80 222 121 63 41 122 74 130 75 8 0 70 -71 138 -158z m-778 17 c0
-21 -8 -26 -70 -42 -55 -14 -60 -12 -78 41 -11 32 -11 33 31 43 23 6 53 15 67
19 21 7 27 4 37 -18 7 -14 12 -34 13 -43z m-578 24 c12 -12 0 -58 -18 -73 -10
-8 -26 -8 -63 1 -52 12 -66 29 -55 64 13 41 21 45 76 31 28 -8 55 -18 60 -23z
m288 -18 c23 -60 -17 -94 -95 -80 -65 13 -59 79 8 94 67 15 77 14 87 -14z
m-290 -170 c132 -21 346 -21 460 0 47 8 88 12 91 8 4 -4 22 -54 39 -112 18
-58 41 -131 51 -162 10 -31 21 -74 25 -96 6 -36 4 -40 -22 -50 -105 -40 -492
-58 -698 -32 -126 16 -217 36 -226 50 -9 14 15 96 79 275 48 133 56 148 80
140 9 -2 63 -12 121 -21z m1638 -107 c12 -18 22 -38 22 -44 0 -12 -78 -73 -92
-73 -13 0 -58 47 -58 60 0 14 77 90 93 90 6 0 22 -15 35 -33z m-2762 -14 c59
-45 64 -72 18 -117 -14 -15 -20 -13 -61 16 -64 46 -69 60 -34 97 16 17 32 31
36 31 3 0 22 -12 41 -27z m2566 -135 l27 -43 -52 -32 c-29 -18 -57 -33 -62
-33 -13 0 -45 52 -45 73 0 12 84 77 100 77 3 0 17 -19 32 -42z m-2293 -47 c12
-7 12 -14 2 -40 -22 -52 -34 -55 -90 -24 -56 31 -60 43 -31 91 l20 33 43 -26
c23 -14 48 -30 56 -34z m2060 -67 c12 -19 21 -39 21 -43 0 -8 -78 -45 -109
-53 -16 -3 -51 59 -44 78 4 11 87 53 105 54 3 0 15 -16 27 -36z m-1788 -51
c12 -12 -4 -78 -22 -89 -12 -7 -119 42 -119 55 0 17 21 65 32 72 11 7 92 -21
109 -38z m1513 -60 c20 -57 16 -62 -71 -91 l-62 -20 -14 46 c-8 26 -12 51 -9
56 6 11 103 55 124 55 11 1 21 -15 32 -46z m-1231 -32 c5 -5 3 -27 -4 -50 -14
-48 -30 -51 -100 -18 l-46 22 14 47 14 47 57 -20 c31 -11 60 -23 65 -28z m911
-36 c10 -41 -3 -73 -32 -79 -98 -19 -99 -19 -106 8 -10 42 3 75 33 82 14 3 31
7 36 9 6 2 22 4 36 4 21 1 28 -5 33 -24z m-623 -34 c6 -14 7 -36 4 -49 -6 -24
-8 -24 -73 -17 -37 4 -70 11 -73 17 -3 5 -2 28 4 52 l9 42 60 -9 c51 -9 61
-14 69 -36z m276 23 c23 -6 35 -37 27 -70 -5 -17 -17 -23 -66 -31 -58 -10 -60
-9 -69 15 -13 33 -2 80 19 85 26 7 65 7 89 1z"/>
<path d="M2018 3268 c-75 -44 -72 -14 -72 -749 -1 -626 0 -657 18 -698 13 -29
31 -48 55 -61 34 -17 38 -17 92 0 31 9 105 46 165 82 89 53 531 310 958 556
60 35 82 53 93 80 32 77 -15 136 -182 226 -109 59 -776 427 -950 524 -114 64
-130 68 -177 40z"/>
</g>
</svg>
